<?xml version="1.0" encoding="utf-8"?>
<!-- Generator: Adobe Illustrator 22.1.0, SVG Export Plug-In . SVG Version: 6.00 Build 0)  -->
<svg version="1.1" xmlns="http://www.w3.org/2000/svg" xmlns:xlink="http://www.w3.org/1999/xlink" x="0px" y="0px"
	 viewBox="0 0 500 500" style="enable-background:new 0 0 500 500;" xml:space="preserve">
<style type="text/css">
	.st0{fill:#99989D;stroke:#000000;stroke-width:5;stroke-miterlimit:10;}
</style>
<g id="Capa_2">
</g>
<g id="Capa_1">
	<title>symbolRecurso 1</title>
	<path class="st0" d="M470.5,250c0,119-96.5,215.5-215.5,215.5S39.5,369,39.5,250S136,34.5,255,34.5S470.5,131,470.5,250z M255,58.8
		C149.4,58.8,63.9,144.4,63.9,250S149.4,441.1,255,441.1S446.1,355.6,446.1,250S360.6,58.8,255,58.8z"/>
	<path class="st0" d="M150.3,289.6L17.9,109.7h30.4l206,281.9v-282l23.7,27.1v330.8L164.4,311.3L54.8,390.7H17.9L150.3,289.6z
		 M227.4,32.5v318.9l25.1,33.9V103.2l239.6,287.3V109.7l-23.7,53.9v157.5L227.4,32.5z"/>
</g>
</svg>
